<?xml version="1.0" encoding="UTF-8" standalone="no"?>
<!-- Created with Inkscape (http://www.inkscape.org/) -->

<svg
   width="13.658999"
   height="20.000679"
   viewBox="0 0 3.6139436 5.2918463"
   version="1.1"
   id="svg1"
   xml:space="preserve"
   xmlns="http://www.w3.org/2000/svg"
   xmlns:svg="http://www.w3.org/2000/svg"><defs
     id="defs1" /><g
     id="layer1"
     transform="translate(-0.8389228)"><g
       id="g3"
       transform="matrix(0.12906942,0,0,0.12906942,-0.45177143,-0.51627767)"
       style="fill:#000000;fill-opacity:1"><path
         fill="#48b564"
         d="m 35.76,26.36 h 0.01 c 0,0 -3.77,5.53 -6.94,9.64 -2.74,3.55 -3.54,6.59 -3.77,8.06 C 24.97,44.6 24.53,45 24,45 23.47,45 23.03,44.6 22.94,44.06 22.71,42.59 21.91,39.55 19.17,36 18.75,35.45 18.32,34.88 17.89,34.3 L 28.24,22 36.57,12.12 c 0.92,1.93 1.43,4.09 1.43,6.38 0,2.9 -0.83,5.59 -2.24,7.86 z"
         id="path1"
         style="fill:#000000;fill-opacity:1" /><path
         fill="#fcc60e"
         d="M 28.24,22 17.89,34.3 c -2.82,-3.78 -5.66,-7.94 -5.66,-7.94 h 0.01 c -0.3,-0.48 -0.57,-0.97 -0.8,-1.48 L 19.76,15 c -0.79,0.95 -1.26,2.17 -1.26,3.5 0,3.04 2.46,5.5 5.5,5.5 1.71,0 3.24,-0.78 4.24,-2 z"
         id="path2"
         style="fill:#000000;fill-opacity:1" /><path
         fill="#2c85eb"
         d="M 28.4,4.74 19.83,14.92 13.27,9.2 C 15.83,6.02 19.69,4 24,4 c 1.54,0 3.02,0.26 4.4,0.74 z"
         id="path3"
         style="fill:#000000;fill-opacity:1" /><path
         fill="#ed5748"
         d="M 19.83,14.92 19.76,15 11.44,24.88 C 10.52,22.95 10,20.79 10,18.5 c 0,-3.54 1.23,-6.79 3.27,-9.3 z"
         id="path4"
         style="fill:#000000;fill-opacity:1" /><path
         fill="#5695f6"
         d="m 28.24,22 c 0.79,-0.95 1.26,-2.17 1.26,-3.5 0,-3.04 -2.46,-5.5 -5.5,-5.5 -1.71,0 -3.24,0.78 -4.24,2 L 28.4,4.74 c 3.59,1.22 6.53,3.91 8.17,7.38 z"
         id="path5"
         style="fill:#000000;fill-opacity:1" /></g></g></svg>
