<svg xmlns="http://www.w3.org/2000/svg" xmlns:xlink="http://www.w3.org/1999/xlink" width="500" zoomAndPan="magnify" viewBox="0 0 375 374.999991" height="500" preserveAspectRatio="xMidYMid meet" version="1.0"><path fill="#000000" d="M 73.59375 4.855469 C 72.863281 4.917969 71.914062 5.078125 71.484375 5.207031 C 71.054688 5.339844 70.351562 5.492188 69.921875 5.550781 C 68.695312 5.714844 67.308594 6.09375 66.796875 6.40625 C 66.539062 6.566406 65.730469 6.84375 65 7.03125 C 64.269531 7.214844 63.53125 7.496094 63.359375 7.65625 C 63.1875 7.8125 62.554688 8.203125 61.953125 8.519531 C 59.445312 9.839844 59.164062 10.007812 58.957031 10.304688 C 58.835938 10.476562 58.441406 10.746094 58.082031 10.910156 C 57.71875 11.070312 57.117188 11.460938 56.742188 11.773438 C 56.371094 12.085938 56.015625 12.34375 55.953125 12.34375 C 55.894531 12.34375 55.550781 12.609375 55.195312 12.929688 C 54.316406 13.722656 53.277344 14.550781 51.875 15.582031 C 51.230469 16.058594 50.449219 16.664062 50.136719 16.933594 C 49.828125 17.203125 49.164062 17.738281 48.667969 18.125 C 48.171875 18.511719 47.578125 19.019531 47.351562 19.257812 C 47.125 19.492188 46.648438 19.878906 46.292969 20.117188 C 45.472656 20.664062 43.257812 22.421875 42.34375 23.25 C 41.058594 24.417969 40.488281 24.914062 39.433594 25.78125 C 38.066406 26.910156 35.363281 29.292969 34.753906 29.90625 C 34.488281 30.171875 33.863281 30.742188 33.359375 31.171875 C 32.003906 32.332031 30.289062 33.996094 25.703125 38.59375 C 20.710938 43.601562 20.703125 43.609375 19.140625 45.402344 C 17.023438 47.835938 16.496094 48.46875 16.167969 48.96875 C 15.996094 49.234375 15.644531 49.6875 15.386719 49.976562 C 14.292969 51.207031 13.640625 51.976562 13.382812 52.34375 C 13.234375 52.558594 12.800781 53.15625 12.417969 53.671875 C 12.035156 54.1875 11.527344 54.953125 11.292969 55.371094 C 11.054688 55.792969 10.679688 56.355469 10.457031 56.621094 C 10.046875 57.117188 9.332031 58.347656 8.625 59.765625 C 8.414062 60.195312 8.039062 60.828125 7.800781 61.171875 C 7.558594 61.515625 7.246094 62.21875 7.105469 62.734375 C 6.960938 63.25 6.679688 63.917969 6.484375 64.21875 C 6.269531 64.539062 5.945312 65.542969 5.699219 66.640625 C 5.464844 67.671875 5.171875 68.972656 5.042969 69.53125 C 4.75 70.824219 4.882812 74.648438 5.320312 77.578125 C 5.488281 78.695312 5.71875 80.851562 5.839844 82.371094 C 6.035156 84.898438 6.09375 85.21875 6.542969 86.175781 C 6.925781 87 7.03125 87.429688 7.03125 88.203125 C 7.03125 90.191406 7.347656 92.382812 7.800781 93.511719 C 8.042969 94.117188 8.355469 95.296875 8.5 96.136719 C 8.640625 96.976562 8.898438 98.019531 9.070312 98.453125 C 9.238281 98.886719 9.488281 99.886719 9.617188 100.675781 C 9.761719 101.539062 10.046875 102.503906 10.335938 103.097656 C 10.609375 103.667969 10.910156 104.65625 11.039062 105.441406 C 11.167969 106.1875 11.472656 107.234375 11.71875 107.769531 C 11.964844 108.304688 12.277344 109.171875 12.410156 109.695312 C 12.546875 110.21875 12.824219 110.941406 13.027344 111.300781 C 13.234375 111.660156 13.523438 112.515625 13.671875 113.203125 C 13.832031 113.960938 14.089844 114.65625 14.324219 114.96875 C 14.539062 115.25 14.839844 115.921875 14.992188 116.457031 C 15.144531 116.992188 15.417969 117.71875 15.597656 118.070312 C 15.777344 118.421875 16.007812 119.050781 16.109375 119.472656 C 16.3125 120.308594 16.609375 120.957031 17.0625 121.570312 C 17.226562 121.789062 17.464844 122.386719 17.597656 122.898438 C 17.726562 123.410156 17.996094 124.074219 18.195312 124.375 C 18.398438 124.675781 18.683594 125.308594 18.835938 125.78125 C 18.984375 126.253906 19.277344 126.886719 19.480469 127.1875 C 19.683594 127.488281 19.988281 128.191406 20.15625 128.753906 C 20.324219 129.3125 20.636719 130.011719 20.855469 130.308594 C 21.074219 130.601562 21.394531 131.234375 21.574219 131.710938 C 21.753906 132.1875 21.992188 132.683594 22.105469 132.8125 C 22.222656 132.941406 22.484375 133.46875 22.695312 133.984375 C 22.90625 134.5 23.257812 135.1875 23.480469 135.515625 C 23.703125 135.839844 24.007812 136.472656 24.152344 136.914062 C 24.300781 137.359375 24.625 138 24.867188 138.339844 C 25.113281 138.675781 25.3125 139.035156 25.3125 139.132812 C 25.3125 139.234375 25.535156 139.660156 25.808594 140.085938 C 26.078125 140.511719 26.433594 141.203125 26.59375 141.621094 C 26.757812 142.039062 27.054688 142.601562 27.253906 142.871094 C 27.457031 143.140625 27.8125 143.746094 28.046875 144.21875 C 28.28125 144.691406 28.558594 145.183594 28.664062 145.3125 C 28.769531 145.441406 28.980469 145.863281 29.128906 146.25 C 29.277344 146.636719 29.597656 147.164062 29.84375 147.421875 C 30.089844 147.679688 30.441406 148.289062 30.621094 148.773438 C 30.800781 149.261719 31.0625 149.753906 31.203125 149.867188 C 31.34375 149.984375 31.617188 150.441406 31.8125 150.882812 C 32.011719 151.328125 32.25 151.738281 32.34375 151.796875 C 32.4375 151.855469 32.726562 152.332031 32.980469 152.859375 C 33.234375 153.386719 33.613281 153.996094 33.820312 154.214844 C 34.027344 154.429688 34.335938 154.925781 34.503906 155.3125 C 34.675781 155.699219 34.996094 156.257812 35.21875 156.554688 C 35.441406 156.851562 35.625 157.179688 35.625 157.289062 C 35.625 157.398438 35.828125 157.71875 36.074219 158.003906 C 36.320312 158.285156 36.699219 158.867188 36.917969 159.296875 C 37.132812 159.726562 37.46875 160.253906 37.65625 160.46875 C 37.84375 160.683594 38.167969 161.1875 38.371094 161.589844 C 38.578125 161.992188 38.816406 162.367188 38.90625 162.421875 C 38.996094 162.476562 39.25 162.886719 39.472656 163.332031 C 39.695312 163.777344 40.046875 164.320312 40.253906 164.542969 C 40.660156 164.976562 41.46875 166.214844 42.082031 167.34375 C 42.292969 167.730469 42.621094 168.1875 42.8125 168.359375 C 43.003906 168.53125 43.328125 169.007812 43.539062 169.421875 C 43.929688 170.195312 44.648438 171.242188 45.4375 172.1875 C 45.691406 172.488281 46.019531 172.980469 46.171875 173.28125 C 46.328125 173.582031 46.679688 174.109375 46.957031 174.453125 C 47.234375 174.796875 47.566406 175.289062 47.699219 175.546875 C 47.828125 175.804688 48.085938 176.148438 48.265625 176.3125 C 48.445312 176.476562 48.59375 176.703125 48.59375 176.816406 C 48.59375 176.929688 48.835938 177.261719 49.128906 177.554688 C 49.421875 177.851562 49.808594 178.378906 49.988281 178.730469 C 50.167969 179.078125 50.507812 179.597656 50.746094 179.878906 C 50.984375 180.160156 51.277344 180.582031 51.398438 180.820312 C 51.515625 181.054688 51.777344 181.355469 51.976562 181.488281 C 52.179688 181.617188 52.4375 181.953125 52.558594 182.230469 C 52.675781 182.507812 53.230469 183.296875 53.785156 183.984375 C 54.339844 184.671875 54.984375 185.535156 55.214844 185.90625 C 55.449219 186.273438 55.738281 186.617188 55.859375 186.664062 C 55.980469 186.707031 56.292969 187.109375 56.558594 187.554688 C 56.820312 187.996094 57.386719 188.816406 57.8125 189.375 C 58.242188 189.933594 58.777344 190.671875 59.003906 191.015625 C 59.230469 191.359375 59.582031 191.816406 59.785156 192.03125 C 59.988281 192.246094 60.3125 192.644531 60.507812 192.914062 C 61.449219 194.226562 62.007812 194.964844 62.613281 195.691406 L 63.660156 196.953125 C 63.875 197.210938 64.355469 197.773438 64.726562 198.203125 C 65.097656 198.632812 65.59375 199.265625 65.824219 199.609375 C 66.511719 200.625 68.214844 202.839844 68.824219 203.515625 C 69.136719 203.859375 69.671875 204.492188 70.019531 204.921875 C 70.421875 205.421875 70.832031 205.917969 71.25 206.40625 C 71.582031 206.792969 72.050781 207.367188 72.292969 207.683594 C 73.074219 208.703125 74.589844 210.496094 75.3125 211.257812 C 75.699219 211.664062 76.296875 212.363281 76.640625 212.8125 C 76.984375 213.261719 77.480469 213.886719 77.746094 214.199219 C 78.011719 214.511719 78.453125 215.097656 78.730469 215.507812 C 79.007812 215.914062 79.292969 216.25 79.363281 216.25 C 79.433594 216.25 79.867188 216.71875 80.332031 217.292969 C 80.792969 217.863281 81.488281 218.664062 81.875 219.0625 C 83.140625 220.378906 84.808594 222.234375 86.285156 223.964844 C 88.132812 226.132812 91.746094 230.195312 92.484375 230.929688 C 92.792969 231.238281 93.609375 232.113281 94.296875 232.871094 C 95.703125 234.421875 95.941406 234.683594 98.378906 237.285156 C 99.332031 238.304688 100.59375 239.667969 101.175781 240.3125 C 102.972656 242.292969 107.183594 246.648438 112.480469 252 C 115.261719 254.808594 117.617188 257.222656 117.714844 257.359375 C 117.8125 257.496094 118.207031 257.800781 118.59375 258.039062 C 119.453125 258.570312 120.8125 259.859375 121.402344 260.703125 C 121.808594 261.289062 127.328125 266.8125 130.3125 269.625 C 131.042969 270.316406 132.660156 271.859375 133.90625 273.058594 C 136.691406 275.738281 139.734375 278.59375 140.804688 279.53125 C 141.242188 279.917969 141.753906 280.398438 141.933594 280.601562 C 142.324219 281.035156 142.671875 281.359375 143.492188 282.0625 C 143.824219 282.347656 144.386719 282.867188 144.742188 283.222656 C 145.34375 283.824219 146.605469 284.941406 151.8125 289.496094 C 152.921875 290.464844 153.910156 291.34375 154.007812 291.449219 C 154.109375 291.554688 154.558594 291.957031 155.011719 292.34375 C 155.460938 292.730469 156.164062 293.363281 156.570312 293.75 C 157.480469 294.617188 160.769531 297.382812 162.886719 299.0625 C 163.375 299.449219 164.105469 300.085938 164.507812 300.472656 C 164.914062 300.863281 165.523438 301.390625 165.867188 301.640625 C 166.207031 301.890625 166.84375 302.414062 167.285156 302.804688 C 167.726562 303.195312 168.769531 304.078125 169.601562 304.765625 C 170.4375 305.453125 171.410156 306.289062 171.769531 306.625 C 172.128906 306.957031 172.667969 307.394531 172.96875 307.59375 C 173.269531 307.792969 173.914062 308.257812 174.402344 308.628906 C 174.890625 308.996094 175.59375 309.519531 175.964844 309.792969 C 176.335938 310.066406 176.851562 310.492188 177.109375 310.742188 C 177.367188 310.988281 177.847656 311.398438 178.175781 311.652344 C 178.574219 311.957031 178.972656 312.265625 179.371094 312.578125 C 179.792969 312.90625 180.21875 313.234375 180.648438 313.554688 C 181.550781 314.226562 182.652344 315.089844 183.589844 315.859375 C 184.007812 316.203125 184.859375 316.835938 185.476562 317.265625 C 186.097656 317.695312 186.886719 318.28125 187.234375 318.5625 C 187.582031 318.847656 188.0625 319.183594 188.304688 319.308594 C 188.542969 319.433594 188.8125 319.667969 188.902344 319.832031 C 188.988281 319.996094 189.332031 320.296875 189.664062 320.496094 C 190.386719 320.929688 191.5 321.738281 192.480469 322.539062 C 192.875 322.859375 193.261719 323.125 193.339844 323.125 C 193.417969 323.125 193.773438 323.386719 194.132812 323.710938 C 194.492188 324.03125 194.992188 324.421875 195.246094 324.574219 C 195.960938 325.003906 197.207031 325.863281 197.890625 326.398438 C 198.9375 327.214844 199.941406 327.925781 200.332031 328.128906 C 200.535156 328.234375 200.984375 328.546875 201.328125 328.820312 C 201.671875 329.097656 202.25 329.484375 202.617188 329.6875 C 202.984375 329.890625 203.28125 330.105469 203.28125 330.167969 C 203.28125 330.28125 204.808594 331.316406 206.039062 332.039062 C 206.410156 332.261719 206.910156 332.621094 207.148438 332.84375 C 207.382812 333.066406 207.941406 333.429688 208.386719 333.652344 C 208.832031 333.875 209.238281 334.125 209.289062 334.207031 C 209.34375 334.292969 209.730469 334.546875 210.152344 334.777344 C 210.574219 335.007812 210.957031 335.289062 211 335.40625 C 211.042969 335.519531 211.5 335.824219 212.011719 336.085938 C 212.527344 336.34375 212.992188 336.628906 213.046875 336.71875 C 213.101562 336.808594 213.558594 337.089844 214.0625 337.34375 C 214.566406 337.597656 215.023438 337.878906 215.078125 337.96875 C 215.132812 338.058594 215.542969 338.3125 215.988281 338.535156 C 216.433594 338.757812 216.988281 339.117188 217.222656 339.335938 C 217.453125 339.558594 218.015625 339.925781 218.472656 340.15625 C 220.234375 341.050781 221.40625 341.746094 221.40625 341.890625 C 221.40625 341.976562 221.878906 342.257812 222.457031 342.515625 C 223.035156 342.777344 223.558594 343.070312 223.625 343.171875 C 223.742188 343.367188 225.171875 344.175781 226.808594 344.980469 C 227.328125 345.238281 227.847656 345.558594 227.964844 345.699219 C 228.078125 345.835938 228.671875 346.199219 229.28125 346.5 C 231.457031 347.574219 232.621094 348.207031 233.023438 348.535156 C 233.246094 348.71875 233.800781 348.988281 234.253906 349.136719 C 234.707031 349.28125 235.226562 349.539062 235.410156 349.710938 C 235.777344 350.050781 239.015625 351.71875 239.308594 351.71875 C 239.410156 351.71875 239.863281 351.96875 240.308594 352.277344 C 240.753906 352.585938 241.410156 352.9375 241.765625 353.0625 C 242.125 353.191406 242.664062 353.441406 242.964844 353.617188 C 243.269531 353.796875 243.792969 354.042969 244.132812 354.164062 C 244.472656 354.285156 245.085938 354.597656 245.496094 354.859375 C 245.902344 355.125 246.660156 355.464844 247.175781 355.621094 C 247.691406 355.777344 248.296875 356.046875 248.519531 356.222656 C 248.742188 356.398438 249.394531 356.699219 249.96875 356.886719 C 250.542969 357.078125 251.183594 357.363281 251.386719 357.523438 C 251.59375 357.679688 252.226562 357.949219 252.792969 358.121094 C 253.363281 358.289062 254.074219 358.597656 254.375 358.800781 C 254.878906 359.144531 255.601562 359.433594 258.90625 360.605469 C 259.550781 360.832031 260.394531 361.203125 260.78125 361.433594 C 261.167969 361.660156 262.011719 361.953125 262.65625 362.082031 C 263.300781 362.214844 264.144531 362.496094 264.53125 362.714844 C 264.917969 362.929688 265.753906 363.246094 266.386719 363.421875 C 267.019531 363.597656 267.84375 363.890625 268.222656 364.070312 C 268.597656 364.253906 269.519531 364.507812 270.273438 364.636719 C 271.175781 364.789062 271.917969 365.027344 272.464844 365.339844 C 272.992188 365.640625 273.746094 365.886719 274.574219 366.027344 C 275.28125 366.148438 276.292969 366.390625 276.820312 366.566406 C 277.351562 366.742188 278.484375 367.015625 279.335938 367.179688 C 280.191406 367.34375 281.304688 367.648438 281.8125 367.859375 C 282.96875 368.34375 283.183594 368.386719 285.867188 368.664062 C 287.074219 368.789062 288.269531 368.96875 288.523438 369.066406 C 289.710938 369.523438 291.925781 369.863281 294.664062 370.003906 C 298.117188 370.179688 298.730469 370.253906 299.5 370.582031 C 299.964844 370.785156 300.707031 370.835938 303.28125 370.84375 C 306.191406 370.851562 306.570312 370.820312 307.421875 370.511719 C 307.9375 370.324219 308.949219 370.027344 309.667969 369.851562 C 310.386719 369.675781 311.203125 369.390625 311.480469 369.222656 C 311.753906 369.050781 312.445312 368.769531 313.015625 368.59375 C 313.582031 368.417969 314.246094 368.109375 314.484375 367.910156 C 314.726562 367.707031 315.273438 367.371094 315.703125 367.15625 C 317.277344 366.371094 318.371094 365.726562 318.828125 365.308594 C 319.085938 365.070312 319.578125 364.722656 319.921875 364.535156 C 321.035156 363.929688 324.375 361.480469 324.375 361.269531 C 324.375 361.203125 324.707031 360.925781 325.117188 360.65625 C 325.882812 360.152344 328.027344 358.414062 329.160156 357.382812 C 331.898438 354.886719 332.789062 354.054688 334.625 352.265625 C 335.769531 351.148438 336.78125 350.164062 336.867188 350.078125 C 337.710938 349.25 341.390625 345.433594 342.828125 343.894531 C 343.828125 342.824219 345.398438 341.144531 346.324219 340.15625 C 347.25 339.167969 348.402344 337.878906 348.886719 337.289062 C 349.371094 336.699219 350.0625 335.855469 350.429688 335.414062 C 350.796875 334.972656 351.226562 334.410156 351.386719 334.167969 C 351.550781 333.925781 351.835938 333.621094 352.019531 333.492188 C 352.207031 333.359375 352.53125 332.996094 352.742188 332.683594 C 352.953125 332.367188 353.476562 331.6875 353.90625 331.171875 C 354.332031 330.65625 354.96875 329.828125 355.316406 329.335938 C 355.664062 328.84375 356.007812 328.4375 356.078125 328.4375 C 356.148438 328.4375 356.394531 328.175781 356.621094 327.851562 C 356.847656 327.53125 357.378906 326.84375 357.808594 326.328125 C 358.972656 324.925781 360.402344 323.050781 360.722656 322.507812 C 360.878906 322.246094 361.058594 322.03125 361.121094 322.03125 C 361.183594 322.03125 361.453125 321.710938 361.722656 321.320312 C 361.992188 320.933594 362.351562 320.457031 362.523438 320.265625 C 363.058594 319.675781 364.164062 318.078125 364.503906 317.402344 C 364.683594 317.046875 364.9375 316.714844 365.070312 316.664062 C 365.203125 316.613281 365.515625 316.167969 365.769531 315.667969 C 366.984375 313.28125 367.300781 312.6875 367.6875 312.109375 C 367.917969 311.765625 368.214844 311.027344 368.355469 310.46875 C 368.492188 309.910156 368.777344 309.101562 368.988281 308.667969 C 369.203125 308.238281 369.511719 307.183594 369.671875 306.324219 C 369.835938 305.46875 370.085938 304.316406 370.230469 303.769531 C 370.507812 302.691406 370.5 301.703125 370.171875 297.1875 C 369.945312 294.0625 369.625 292.367188 369.042969 291.210938 C 368.785156 290.703125 368.4375 289.839844 368.269531 289.300781 C 368.105469 288.761719 367.855469 288.226562 367.722656 288.113281 C 367.585938 288.003906 367.304688 287.578125 367.101562 287.167969 C 366.894531 286.761719 366.652344 286.382812 366.5625 286.328125 C 366.476562 286.273438 366.167969 285.863281 365.882812 285.417969 C 365.132812 284.253906 363.726562 282.871094 362.113281 281.710938 C 361.34375 281.15625 360.589844 280.582031 360.441406 280.4375 C 360.292969 280.292969 359.976562 280.070312 359.734375 279.945312 C 359.121094 279.625 357.203125 278.371094 356.640625 277.921875 C 356.382812 277.714844 355.996094 277.457031 355.78125 277.34375 C 355.566406 277.230469 355.1875 276.972656 354.9375 276.765625 C 354.691406 276.558594 354.164062 276.214844 353.765625 276 C 353.371094 275.785156 352.519531 275.230469 351.875 274.765625 C 351.230469 274.300781 350.386719 273.75 350 273.539062 C 349.613281 273.332031 349.15625 273.003906 348.984375 272.8125 C 348.8125 272.621094 348.34375 272.300781 347.941406 272.09375 C 347.539062 271.890625 347.164062 271.652344 347.109375 271.5625 C 347.054688 271.472656 346.609375 271.195312 346.121094 270.949219 C 345.632812 270.699219 345.027344 270.28125 344.773438 270.015625 C 344.523438 269.75 344.242188 269.53125 344.148438 269.527344 C 343.972656 269.523438 341.726562 268.089844 340.988281 267.507812 C 340.597656 267.199219 339.914062 266.738281 336.40625 264.417969 C 335.933594 264.105469 335.453125 263.753906 335.335938 263.636719 C 335.21875 263.523438 334.832031 263.28125 334.476562 263.097656 C 334.121094 262.917969 333.570312 262.570312 333.257812 262.324219 C 332.945312 262.078125 332.628906 261.875 332.554688 261.875 C 332.480469 261.875 332.140625 261.617188 331.800781 261.304688 C 331.457031 260.988281 330.890625 260.605469 330.539062 260.449219 C 330.191406 260.292969 329.765625 260.015625 329.597656 259.832031 C 329.433594 259.648438 329.015625 259.355469 328.671875 259.179688 C 328.328125 259.007812 327.84375 258.695312 327.597656 258.488281 C 327.351562 258.28125 326.894531 258.007812 326.582031 257.875 C 326.269531 257.746094 325.804688 257.445312 325.546875 257.207031 C 325.289062 256.972656 324.410156 256.363281 323.59375 255.859375 C 322.777344 255.355469 321.898438 254.773438 321.640625 254.570312 C 321.21875 254.238281 319.367188 253.023438 318.183594 252.304688 C 317.9375 252.15625 317.3125 251.722656 316.796875 251.335938 C 316.28125 250.953125 315.472656 250.421875 315 250.15625 C 314.527344 249.890625 313.613281 249.292969 312.96875 248.828125 C 312.324219 248.363281 311.449219 247.796875 311.023438 247.570312 C 310.601562 247.339844 310.050781 246.949219 309.800781 246.699219 C 309.554688 246.453125 309.277344 246.25 309.1875 246.25 C 309.097656 246.25 308.699219 246.011719 308.300781 245.722656 C 307.902344 245.433594 307.289062 245.046875 306.933594 244.871094 C 306.578125 244.691406 306.082031 244.347656 305.828125 244.109375 C 305.578125 243.867188 305.027344 243.476562 304.601562 243.238281 C 303.257812 242.488281 302.277344 241.859375 301.875 241.488281 C 301.660156 241.289062 301.167969 240.96875 300.78125 240.777344 C 300.394531 240.582031 299.832031 240.222656 299.535156 239.976562 C 299.234375 239.730469 298.914062 239.53125 298.816406 239.53125 C 298.71875 239.53125 298.507812 239.382812 298.34375 239.203125 C 298.179688 239.019531 297.570312 238.632812 296.992188 238.339844 C 296.410156 238.046875 295.9375 237.757812 295.9375 237.691406 C 295.9375 237.628906 295.371094 237.226562 294.679688 236.796875 C 293.839844 236.273438 293.007812 235.738281 292.179688 235.195312 C 291.496094 234.742188 290.902344 234.375 290.859375 234.375 C 290.8125 234.375 290.367188 234.09375 289.863281 233.75 C 289.359375 233.40625 288.878906 233.125 288.796875 233.125 C 288.710938 233.125 288.335938 232.890625 287.957031 232.605469 C 287.574219 232.320312 286.949219 231.953125 286.5625 231.789062 C 286.175781 231.625 285.597656 231.308594 285.28125 231.082031 C 284.878906 230.796875 284.328125 230.613281 283.484375 230.480469 C 282.8125 230.375 281.527344 230.109375 280.628906 229.894531 C 279.070312 229.515625 278.832031 229.5 275.707031 229.578125 C 273.15625 229.640625 272.125 229.726562 271.09375 229.972656 C 270.363281 230.148438 269.167969 230.371094 268.4375 230.464844 C 267.511719 230.585938 266.777344 230.800781 266.015625 231.167969 C 265.414062 231.457031 264.605469 231.777344 264.21875 231.875 C 263.832031 231.976562 263.128906 232.253906 262.65625 232.488281 C 262.183594 232.726562 261.515625 233.011719 261.171875 233.121094 C 260.828125 233.226562 260.226562 233.519531 259.832031 233.765625 C 259.441406 234.011719 258.878906 234.296875 258.582031 234.394531 C 258.289062 234.492188 257.835938 234.730469 257.578125 234.921875 C 257.320312 235.113281 256.652344 235.496094 256.09375 235.777344 C 255.535156 236.054688 254.972656 236.378906 254.84375 236.488281 C 254.714844 236.601562 254.214844 236.84375 253.730469 237.023438 C 253.25 237.203125 252.722656 237.496094 252.558594 237.675781 C 252.398438 237.855469 251.84375 238.207031 251.328125 238.457031 C 250.296875 238.960938 248.535156 239.972656 247.421875 240.703125 C 246.964844 241.003906 246.507812 241.300781 246.050781 241.601562 C 245.6875 241.839844 245.042969 242.136719 244.617188 242.265625 C 244.191406 242.394531 243.59375 242.675781 243.289062 242.886719 C 242.984375 243.097656 242.417969 243.378906 242.03125 243.515625 C 241.644531 243.652344 241.117188 243.960938 240.859375 244.203125 C 240.601562 244.445312 240.074219 244.761719 239.6875 244.910156 C 239.300781 245.0625 238.773438 245.339844 238.515625 245.535156 C 238.257812 245.726562 237.660156 246.074219 237.1875 246.308594 C 235.960938 246.914062 234.613281 247.691406 234.273438 247.992188 C 233.96875 248.261719 232.507812 249.070312 230.769531 249.9375 C 230.207031 250.21875 229.652344 250.558594 229.539062 250.695312 C 229.425781 250.832031 228.589844 251.300781 227.683594 251.742188 C 226.175781 252.476562 226.003906 252.527344 225.679688 252.328125 C 225.484375 252.207031 224.917969 251.871094 224.421875 251.582031 C 223.921875 251.289062 223.222656 250.796875 222.863281 250.488281 C 222.507812 250.175781 221.921875 249.710938 221.566406 249.453125 C 221.207031 249.195312 220.550781 248.667969 220.105469 248.28125 C 219.65625 247.894531 219.027344 247.4375 218.707031 247.269531 C 218.386719 247.097656 218.125 246.910156 218.125 246.847656 C 218.125 246.785156 217.824219 246.527344 217.460938 246.277344 C 216.796875 245.816406 216.382812 245.480469 215.023438 244.28125 C 214.625 243.925781 214.132812 243.550781 213.933594 243.445312 C 213.730469 243.34375 213.027344 242.78125 212.371094 242.203125 C 211.710938 241.625 211.039062 241.074219 210.875 240.984375 C 210.714844 240.894531 210.292969 240.5625 209.9375 240.246094 C 209.585938 239.929688 208.347656 238.859375 207.1875 237.871094 C 206.199219 237.027344 205.214844 236.183594 204.230469 235.339844 C 203.765625 234.9375 203.230469 234.503906 203.042969 234.375 C 202.539062 234.03125 200.003906 231.75 197.421875 229.320312 C 196.734375 228.671875 195.292969 227.382812 194.21875 226.453125 C 193.144531 225.523438 192.023438 224.550781 191.726562 224.292969 C 191.347656 223.964844 190.976562 223.625 190.613281 223.28125 C 190.292969 222.980469 189.136719 221.890625 188.039062 220.859375 C 186.941406 219.828125 185.421875 218.386719 184.667969 217.65625 C 183.910156 216.925781 182.929688 216.046875 182.488281 215.703125 C 182.042969 215.359375 181.019531 214.410156 180.207031 213.59375 C 172.6875 206.011719 169.902344 203.257812 169.144531 202.65625 C 168.203125 201.910156 167.445312 201.117188 166.171875 199.546875 C 165.742188 199.015625 164.007812 197.160156 162.316406 195.421875 C 157.886719 190.878906 156.792969 189.738281 155.390625 188.195312 C 154.703125 187.441406 153.921875 186.609375 153.65625 186.34375 C 153.113281 185.796875 148.984375 181.21875 148.074219 180.152344 C 147.429688 179.394531 145.503906 177.269531 144.375 176.0625 C 143.925781 175.578125 143.484375 175.089844 143.046875 174.59375 C 142.703125 174.203125 142.140625 173.574219 141.796875 173.203125 C 141.453125 172.832031 140.785156 172.054688 140.3125 171.472656 C 139.839844 170.890625 138.910156 169.773438 138.25 168.996094 C 137.585938 168.214844 136.777344 167.242188 136.453125 166.828125 C 136.125 166.417969 135.613281 165.8125 135.3125 165.484375 C 134.617188 164.730469 132.542969 162.144531 132.042969 161.414062 C 131.832031 161.109375 131.53125 160.765625 131.371094 160.652344 C 131.210938 160.535156 130.910156 160.171875 130.699219 159.839844 C 130.492188 159.507812 130.175781 159.074219 130 158.875 C 129.199219 157.976562 128.605469 157.210938 128.207031 156.5625 C 127.96875 156.175781 127.578125 155.648438 127.335938 155.390625 C 126.859375 154.886719 126.425781 154.304688 125.554688 153.007812 C 125.25 152.554688 124.941406 152.1875 124.867188 152.1875 C 124.792969 152.1875 124.507812 151.78125 124.230469 151.289062 C 123.957031 150.796875 123.597656 150.175781 123.429688 149.910156 L 123.128906 149.429688 L 123.671875 148.320312 C 123.972656 147.710938 124.21875 147.140625 124.21875 147.050781 C 124.21875 146.960938 124.429688 146.648438 124.683594 146.355469 C 124.941406 146.066406 125.367188 145.375 125.628906 144.828125 C 126.210938 143.617188 127.148438 141.945312 127.589844 141.320312 C 127.769531 141.066406 128.140625 140.402344 128.414062 139.84375 C 128.691406 139.285156 129.191406 138.371094 129.53125 137.8125 C 129.871094 137.253906 130.355469 136.375 130.605469 135.859375 C 130.855469 135.34375 131.203125 134.792969 131.378906 134.636719 C 131.550781 134.480469 131.851562 133.953125 132.046875 133.464844 C 132.242188 132.976562 132.554688 132.367188 132.742188 132.109375 C 132.929688 131.851562 133.1875 131.324219 133.316406 130.9375 C 133.445312 130.550781 133.894531 129.714844 134.3125 129.082031 C 134.710938 128.484375 135.109375 127.886719 135.503906 127.285156 C 135.738281 126.929688 135.933594 126.5625 135.933594 126.46875 C 135.9375 126.375 136.160156 125.988281 136.4375 125.609375 C 136.710938 125.230469 137.066406 124.570312 137.230469 124.140625 C 137.390625 123.710938 137.664062 123.210938 137.832031 123.027344 C 138.003906 122.84375 138.558594 121.875 139.070312 120.867188 C 139.582031 119.863281 140.210938 118.734375 140.46875 118.359375 C 140.726562 117.984375 140.9375 117.621094 140.9375 117.554688 C 140.9375 117.433594 142.226562 114.726562 143.121094 112.96875 C 143.359375 112.496094 143.644531 111.722656 143.75 111.25 C 143.859375 110.777344 144.183594 109.898438 144.472656 109.296875 C 144.832031 108.550781 145.050781 107.808594 145.15625 106.964844 C 145.242188 106.28125 145.449219 105.226562 145.621094 104.621094 C 146.347656 102.023438 146.351562 96.21875 145.632812 93.945312 C 145.460938 93.410156 145.242188 92.496094 145.140625 91.914062 C 144.949219 90.785156 144.804688 90.414062 144.375 89.921875 C 144.226562 89.75 143.976562 89.265625 143.820312 88.84375 C 143.660156 88.421875 143.382812 87.894531 143.203125 87.671875 C 142.882812 87.277344 141.84375 85.597656 141.128906 84.316406 C 140.929688 83.96875 140.644531 83.539062 140.488281 83.363281 C 140.140625 82.96875 138.875 81.027344 138.546875 80.378906 C 138.410156 80.113281 138.1875 79.804688 138.042969 79.683594 C 137.902344 79.566406 137.585938 79.078125 137.34375 78.59375 C 137.101562 78.109375 136.785156 77.617188 136.640625 77.5 C 136.5 77.382812 136.21875 76.960938 136.015625 76.5625 C 135.8125 76.164062 135.53125 75.742188 135.390625 75.625 C 135.25 75.507812 134.953125 75.054688 134.734375 74.621094 C 134.515625 74.183594 134.113281 73.574219 133.847656 73.261719 C 133.578125 72.949219 133.042969 72.152344 132.65625 71.488281 C 132.269531 70.828125 131.707031 69.984375 131.40625 69.613281 C 131.105469 69.246094 130.648438 68.574219 130.390625 68.125 C 129.484375 66.542969 129.136719 65.988281 128.777344 65.535156 C 128.578125 65.285156 128.191406 64.714844 127.917969 64.273438 C 127.203125 63.113281 126.214844 61.652344 126.089844 61.5625 C 126.027344 61.519531 125.796875 61.125 125.574219 60.6875 C 125.355469 60.246094 125.003906 59.683594 124.796875 59.4375 C 124.589844 59.1875 124.332031 58.808594 124.21875 58.59375 C 124.105469 58.378906 123.847656 57.992188 123.640625 57.734375 C 123.144531 57.121094 121.71875 54.871094 121.71875 54.703125 C 121.71875 54.632812 121.4375 54.253906 121.09375 53.863281 C 120.75 53.472656 120.46875 53.109375 120.46875 53.054688 C 120.46875 52.996094 120.152344 52.46875 119.765625 51.875 C 119.378906 51.28125 119.0625 50.75 119.0625 50.691406 C 119.0625 50.628906 118.78125 50.277344 118.4375 49.902344 C 118.09375 49.53125 117.8125 49.144531 117.8125 49.046875 C 117.8125 48.945312 117.570312 48.53125 117.277344 48.117188 C 116.980469 47.707031 116.59375 47.089844 116.417969 46.742188 C 116.242188 46.398438 115.960938 46.015625 115.789062 45.898438 C 115.621094 45.78125 115.347656 45.371094 115.183594 44.988281 C 115.019531 44.609375 114.648438 44 114.355469 43.640625 C 113.65625 42.773438 113.238281 42.132812 112.679688 41.09375 C 112.425781 40.621094 112.03125 40.023438 111.804688 39.765625 C 111.578125 39.507812 111.242188 39.035156 111.058594 38.710938 C 110.875 38.386719 110.667969 38.125 110.597656 38.125 C 110.53125 38.125 110.328125 37.839844 110.148438 37.488281 C 109.804688 36.808594 108.675781 35.066406 108.089844 34.304688 C 107.894531 34.050781 107.335938 33.207031 106.851562 32.429688 C 106.363281 31.652344 105.757812 30.769531 105.503906 30.46875 C 105.25 30.167969 104.890625 29.605469 104.707031 29.21875 C 104.355469 28.488281 103.574219 27.296875 102.921875 26.484375 C 102.710938 26.226562 102.363281 25.664062 102.148438 25.234375 C 101.929688 24.804688 101.597656 24.3125 101.40625 24.140625 C 101.214844 23.96875 100.933594 23.578125 100.777344 23.269531 C 100.621094 22.964844 100.375 22.617188 100.234375 22.5 C 100.089844 22.382812 99.796875 21.929688 99.578125 21.496094 C 99.359375 21.058594 98.941406 20.4375 98.652344 20.117188 C 98.363281 19.792969 98.125 19.46875 98.125 19.390625 C 98.125 19.3125 97.898438 18.964844 97.617188 18.617188 C 97.335938 18.269531 96.757812 17.410156 96.328125 16.707031 C 95.898438 16.003906 95.367188 15.246094 95.148438 15.019531 C 94.933594 14.792969 94.558594 14.273438 94.324219 13.867188 C 94.085938 13.460938 93.839844 13.125 93.777344 13.125 C 93.714844 13.125 93.527344 12.894531 93.363281 12.617188 C 92.90625 11.835938 91.292969 10.214844 90.40625 9.648438 C 89.96875 9.371094 89.496094 9.027344 89.359375 8.886719 C 89.21875 8.75 88.761719 8.503906 88.339844 8.34375 C 87.539062 8.039062 85.796875 7.167969 84.414062 6.378906 C 83.804688 6.035156 83.132812 5.839844 81.835938 5.625 C 80.867188 5.46875 79.65625 5.234375 79.140625 5.105469 C 77.984375 4.816406 75.367188 4.699219 73.59375 4.855469 " fill-opacity="1" fill-rule="evenodd"/></svg>