<svg xmlns="http://www.w3.org/2000/svg" xmlns:xlink="http://www.w3.org/1999/xlink" width="500" zoomAndPan="magnify" viewBox="0 0 375 374.999991" height="500" preserveAspectRatio="xMidYMid meet" version="1.0"><path fill="#000000" d="M 179.15625 9.058594 C 133.898438 13.632812 96.683594 48.796875 89.363281 93.90625 C 88.289062 100.53125 87.40625 111.011719 87.40625 117.1875 L 87.398438 128.425781 L 53.988281 128.425781 L 53.773438 245.289062 C 53.65625 309.5625 53.511719 363.164062 53.453125 364.398438 C 53.351562 366.527344 60.664062 366.648438 189.90625 366.648438 L 326.46875 366.648438 L 327.164062 268.40625 C 327.546875 214.371094 327.46875 160.773438 326.984375 149.292969 L 326.101562 128.425781 L 293.390625 128.425781 L 292.640625 111.410156 C 291.53125 86.148438 285.957031 68.847656 273.085938 50.730469 C 252.179688 21.300781 216.160156 5.320312 179.15625 9.058594 M 174.855469 43.785156 C 165.773438 45.5625 150.996094 53.257812 143.761719 59.964844 C 134.988281 68.109375 127.722656 79.480469 124.675781 89.847656 C 122.171875 98.363281 120.117188 122.558594 121.574219 126.355469 C 122.292969 128.226562 128.996094 128.425781 190.339844 128.425781 L 258.308594 128.425781 L 258.292969 113.980469 C 258.269531 91.113281 253.457031 77.8125 240.003906 63.441406 C 231.261719 54.101562 216.484375 45.875 204.484375 43.660156 C 196.324219 42.15625 182.878906 42.210938 174.855469 43.785156 M 118.238281 230.917969 C 112.925781 231.707031 106.894531 237.191406 105.226562 242.753906 C 102.074219 253.273438 108.78125 263.292969 120.167969 265.085938 C 135.023438 267.421875 144.851562 246.890625 134.046875 236.09375 C 130.09375 232.140625 123.828125 230.089844 118.238281 230.917969 M 186.441406 230.804688 C 178.460938 232.332031 173.492188 238.984375 173.503906 248.113281 C 173.519531 258.191406 179.925781 264.460938 190.203125 264.460938 C 200.476562 264.460938 206.882812 258.191406 206.898438 248.113281 C 206.917969 236.230469 197.90625 228.605469 186.441406 230.804688 M 253.621094 231.332031 C 247.238281 233.101562 241.601562 240.421875 241.609375 246.941406 C 241.613281 252.945312 244.980469 259.503906 249.574219 262.460938 C 252.09375 264.082031 258.980469 265.117188 264.3125 264.675781 C 267.644531 264.402344 273.746094 257.703125 275.039062 252.902344 C 278.683594 239.367188 267.019531 227.621094 253.621094 231.332031 " fill-opacity="1" fill-rule="evenodd"/></svg>